<svg xmlns="http://www.w3.org/2000/svg" viewBox="0 0 500 320" font-family="sans-serif">
  <rect width="500" height="320" fill="#ffffff"/>
  <!-- axon -->
  <path d="M170 165 H360" stroke="#14a3a8" stroke-width="10" fill="none" stroke-linecap="round"/>
  <!-- myelin sheaths -->
  <ellipse cx="225" cy="165" rx="22" ry="13" fill="#d4a039" stroke="#a67c2e" stroke-width="2"/>
  <ellipse cx="280" cy="165" rx="22" ry="13" fill="#d4a039" stroke="#a67c2e" stroke-width="2"/>
  <ellipse cx="335" cy="165" rx="22" ry="13" fill="#d4a039" stroke="#a67c2e" stroke-width="2"/>
  <!-- axon terminals -->
  <g stroke="#0d7377" stroke-width="6" fill="none" stroke-linecap="round">
    <path d="M360 165 q25 -8 40 -28"/>
    <path d="M360 165 q28 0 46 2"/>
    <path d="M360 165 q25 10 40 30"/>
  </g>
  <circle cx="402" cy="135" r="9" fill="#0d7377"/>
  <circle cx="408" cy="167" r="9" fill="#0d7377"/>
  <circle cx="402" cy="197" r="9" fill="#0d7377"/>
  <!-- soma -->
  <circle cx="130" cy="165" r="48" fill="#0d7377"/>
  <circle cx="130" cy="165" r="48" fill="none" stroke="#094f52" stroke-width="3"/>
  <!-- nucleus -->
  <circle cx="130" cy="165" r="20" fill="#094f52"/>
  <circle cx="124" cy="159" r="6" fill="#14a3a8"/>
  <!-- dendrites -->
  <g stroke="#0d7377" stroke-width="7" fill="none" stroke-linecap="round">
    <path d="M96 132 q-30 -28 -52 -30 M44 102 q-18 -2 -30 -16 M44 102 q-2 -16 -14 -28"/>
    <path d="M92 198 q-34 24 -56 28 M36 226 q-18 4 -26 20 M36 226 q-12 12 -28 16"/>
    <path d="M130 117 q-6 -40 -28 -58 M102 59 q-16 -10 -16 -28 M102 59 q-18 -2 -34 -8"/>
  </g>
</svg>
